<?xml version="1.0" standalone="no"?>
<!DOCTYPE svg PUBLIC "-//W3C//DTD SVG 20010904//EN"
 "http://www.w3.org/TR/2001/REC-SVG-20010904/DTD/svg10.dtd">
<svg version="1.0" xmlns="http://www.w3.org/2000/svg"
 width="688" height="648" viewBox="0 0 688 648"
 preserveAspectRatio="xMidYMid meet">

<g transform="translate(0.00,500) scale(0.1,-0.1)"
fill="#c3c157" stroke="none" opacity="0.35">
<path d="M755 4989 c-147 -21 -310 -93 -433 -191 -131 -105 -248 -290 -295
-468 l-22 -85 0 -1745 0 -1745 22 -85 c48 -183 166 -366 303 -474 91 -71 229
-140 340 -169 l85 -22 1745 0 1745 0 85 22 c183 48 366 166 474 303 71 91 140
229 169 340 l22 85 0 1745 0 1745 -23 85 c-83 317 -317 552 -637 642 l-80 23
-1720 1 c-946 1 -1747 -2 -1780 -7z m2580 -437 c44 -12 123 -43 175 -69 81
-40 109 -61 190 -142 146 -147 218 -294 240 -492 15 -129 7 -198 -61 -539 -65
-321 -98 -424 -185 -570 -172 -289 -443 -506 -753 -604 -175 -55 -189 -56
-1032 -56 -429 0 -779 3 -779 8 1 4 18 90 38 192 l38 185 1129 3 1130 2 -150
150 -150 150 -947 0 c-803 0 -948 2 -948 14 0 12 32 176 45 234 l5 22 786 -2
785 -3 -109 108 -109 107 -657 0 -658 0 6 28 c3 15 11 55 17 90 l12 62 543 0
c299 0 544 3 544 8 0 4 -34 37 -74 75 l-74 67 -451 0 c-247 0 -452 3 -454 8
-2 4 3 35 11 70 l14 62 371 0 371 0 -54 55 -54 55 -309 0 c-289 0 -308 1 -303
18 2 9 7 32 11 50 l7 32 246 0 247 1 -45 39 -45 40 -192 0 c-209 0 -204 -1
-183 54 l10 26 141 0 142 0 -23 25 c-21 23 -31 25 -134 27 l-111 3 -3 28 -3
27 82 0 82 0 -23 25 c-19 20 -33 25 -72 25 -33 0 -48 4 -48 13 0 8 14 81 30
162 17 81 30 150 30 152 0 2 368 2 818 1 812 -3 817 -3 897 -26z m-2238 -2869
c-3 -10 -44 -219 -93 -465 l-87 -448 -69 0 -70 0 7 52 7 51 -31 -36 c-66 -74
-183 -107 -264 -73 -49 20 -93 77 -106 136 -41 189 57 409 218 487 51 25 66
28 163 28 l107 0 11 48 c5 27 18 91 27 143 l18 94 83 0 c75 0 83 -2 79 -17z
m807 -121 c2 -4 -2 -37 -9 -72 -8 -36 -14 -68 -15 -72 0 -5 30 -8 66 -8 l67 0
-7 -50 c-11 -80 -10 -80 -85 -80 l-67 0 -32 -163 c-18 -89 -32 -171 -32 -183
0 -32 20 -44 73 -44 l50 0 -7 -52 c-4 -29 -12 -58 -17 -64 -14 -18 -130 -27
-177 -14 -24 6 -51 23 -66 41 -35 42 -34 86 9 299 19 95 35 175 35 177 0 2
-20 3 -45 3 -25 0 -45 4 -45 8 0 5 5 34 11 65 l12 57 47 0 47 0 13 73 c7 39
14 75 17 80 6 9 150 9 157 -1z m-453 -143 c37 -8 64 -22 92 -48 34 -32 40 -45
44 -88 14 -142 -82 -214 -326 -244 l-101 -13 0 -42 c0 -56 7 -72 41 -89 45
-24 178 -19 267 9 23 8 23 6 20 -55 l-3 -63 -45 -14 c-25 -7 -90 -16 -145 -19
-256 -14 -345 93 -291 349 51 238 228 364 447 317z m969 1 c13 -8 12 -19 -10
-82 l-25 -73 -38 3 c-48 4 -93 -23 -135 -82 -47 -65 -60 -103 -88 -250 -14
-72 -27 -139 -30 -148 -5 -15 -18 -18 -85 -18 -43 0 -79 3 -79 8 0 4 27 148
61 320 l61 312 70 0 70 0 -7 -52 -7 -53 36 41 c58 68 159 104 206 74z m1074
-19 c39 -24 67 -76 74 -136 3 -33 -60 -394 -84 -477 -5 -15 -18 -18 -85 -18
-43 0 -79 3 -79 8 0 4 18 97 40 207 22 110 40 214 40 230 0 95 -99 101 -179
10 -55 -63 -79 -127 -113 -295 l-33 -160 -82 0 -82 0 6 33 c4 17 32 160 62
317 l56 285 74 3 73 3 -7 -33 c-4 -18 -9 -42 -12 -52 -4 -13 6 -7 31 17 39 39
83 66 131 78 48 13 132 2 169 -20z m-606 3 c42 -8 81 -19 86 -24 5 -5 -17
-136 -51 -307 l-59 -298 -71 -3 -70 -3 8 43 c12 62 12 63 -17 29 -64 -77 -182
-110 -269 -76 -78 29 -115 99 -115 219 0 203 109 369 275 422 56 18 192 17
283 -2z m1240 1 c47 -7 47 -6 30 -52 -9 -24 -17 -32 -28 -27 -35 14 -130 16
-160 4 -42 -17 -70 -56 -70 -97 0 -51 14 -68 88 -112 101 -59 125 -89 129
-158 3 -47 -1 -66 -19 -98 -49 -83 -170 -126 -301 -105 -40 6 -76 15 -80 19
-5 5 -3 24 3 43 l13 35 50 -15 c30 -8 75 -13 113 -10 53 3 68 9 94 33 60 58
49 120 -33 172 -97 61 -113 74 -130 102 -25 42 -22 124 5 173 26 46 87 85 149
96 44 8 69 8 147 -3z m492 -23 c86 -62 96 -251 23 -409 -34 -74 -104 -147
-171 -180 -53 -26 -66 -28 -168 -27 l-110 1 -25 -121 -25 -121 -39 0 c-34 0
-40 3 -38 20 1 11 39 208 85 438 l83 417 39 0 39 0 -7 -42 c-4 -24 -10 -54
-13 -68 -5 -21 1 -17 36 22 53 60 99 88 159 97 53 8 95 0 132 -27z m-966 -483
c50 -39 26 -122 -39 -135 -72 -14 -114 78 -60 131 30 30 64 32 99 4z"/>
<path d="M680 1268 c-37 -20 -51 -37 -79 -91 -29 -57 -35 -80 -38 -150 -5
-103 7 -131 60 -135 32 -3 43 3 85 42 27 25 61 68 76 95 32 60 72 229 57 244
-6 6 -34 12 -63 14 -42 4 -62 0 -98 -19z"/>
<path d="M1295 1296 c-47 -20 -124 -124 -110 -146 7 -12 154 9 190 26 114 54
36 171 -80 120z"/>
<path d="M2635 1274 c-68 -38 -106 -99 -125 -204 -30 -163 43 -233 145 -139
25 23 59 69 75 103 34 69 73 233 58 242 -24 15 -124 14 -153 -2z"/>
<path fill-rule="evenodd" clip-rule="evenodd" d="M4439 1320 c-90 -47 -177 -202 -207 -366 l-19 -102 37 -11 c184 -55
331 74 347 306 7 91 -2 139 -32 169 -30 29 -75 31 -126 4z"/>
</g>
</svg>
